# xmcd
#
# Track frame offsets:
#	150
#	13285
#	29533
#	47997
#	61619
#	76727
#	92426
#	109093
#	129564
#	143752
#	159608
#	177881
#	195308
#	195870
#	196417
#	196981
#	197536
#
# Disc length: 3008 seconds
# Revision: 0
# Processed by: cddbd v1.5.2PL0 Copyright (c) Steve Scherf et al.
# Submitted via: dBpowerAMP V12.0
#
DISCID=da0bbe11
DTITLE=Jason Cassidy - My Redemption
DYEAR=2011
DGENRE=Country
TTITLE0=Can't Take Me From Your Memory
TTITLE1=That's When
TTITLE2=No Good Together
TTITLE3=Ride of Your Life
TTITLE4=I Wish I'd Done That
TTITLE5=Sounds Like an Angel To Me
TTITLE6=My Redemption
TTITLE7=Bourbon Tears and Pain
TTITLE8=Why Not Now
TTITLE9=What Do You Have For a Heartache
TTITLE10=What If
TTITLE11=Honky Tonk Heaven
TTITLE12=[Untitled]
TTITLE13=[Untitled]
TTITLE14=[Untitled]
TTITLE15=[Untitled]
TTITLE16=Honkey Tonk Heaven (Acoustic Version)
EXTD=
EXTT0=
EXTT1=
EXTT2=
EXTT3=
EXTT4=
EXTT5=
EXTT6=
EXTT7=
EXTT8=
EXTT9=
EXTT10=
EXTT11=
EXTT12=
EXTT13=
EXTT14=
EXTT15=
EXTT16=
PLAYORDER=
